# xmcd
#
# Track frame offsets: 
#        150
#        14178
#        31946
#        47115
#        62978
#        79208
#        95701
#        111242
#        129842
#        147824
#        165682
#
# Disc length: 2448 seconds
#
# Revision: 0
# Processed by: cddbd v1.5.1PL0 Copyright (c) Steve Scherf et al.
# Submitted via: ExactAudioCopy v0.95a3
#
DISCID=99098e0b
DTITLE=Eric Heatherly - The Lower East Side Of Life
DYEAR=2005
DGENRE=Country
TTITLE0=Judging Beauty
TTITLE1=Hang It On Your Heart
TTITLE2=Job
TTITLE3=Ruin
TTITLE4=Whatever Happened...
TTITLE5=The Lower East Side Of Life
TTITLE6=Who Needs Enemies (With Family Like You)
TTITLE7=Dark Days
TTITLE8=Go Where You Hide
TTITLE9=Love Story Love
TTITLE10=Way Down
EXTD=
EXTT0=
EXTT1=
EXTT2=
EXTT3=
EXTT4=
EXTT5=
EXTT6=
EXTT7=
EXTT8=
EXTT9=
EXTT10=
PLAYORDER=
